STARTFONT 2.1
FONT -FontForge-Darn-Medium-O-Normal--15-110-100-100-P-68-ISO10646-1
SIZE 11 100 100
FONTBOUNDINGBOX 19 17 -7 -4
COMMENT "Generated by fontforge, http://fontforge.sourceforge.net"
COMMENT "Copyright (c) 2019, Gabriel Holodak"
STARTPROPERTIES 34
FOUNDRY "FontForge"
FAMILY_NAME "Darn"
WEIGHT_NAME "Medium"
SLANT "O"
SETWIDTH_NAME "Normal"
ADD_STYLE_NAME ""
PIXEL_SIZE 15
POINT_SIZE 110
RESOLUTION_X 100
RESOLUTION_Y 100
SPACING "P"
AVERAGE_WIDTH 68
CHARSET_REGISTRY "ISO10646"
CHARSET_ENCODING "1"
FONTNAME_REGISTRY ""
CHARSET_COLLECTIONS "ISO10646-1"
FONT_NAME "DarnObliqueMedium"
FACE_NAME "Darn Oblique Medium"
COPYRIGHT "Copyright (c) 2019, Gabriel Holodak"
FONT_VERSION "000.100"
FONT_ASCENT 12
FONT_DESCENT 3
UNDERLINE_POSITION -2
UNDERLINE_THICKNESS 1
X_HEIGHT 6
CAP_HEIGHT 8
RAW_ASCENT 800
RAW_DESCENT 200
NORM_SPACE 7
RELATIVE_WEIGHT 50
RELATIVE_SETWIDTH 50
FIGURE_WIDTH 7
AVG_LOWERCASE_WIDTH 70
AVG_UPPERCASE_WIDTH 70
ENDPROPERTIES
CHARS 294
STARTCHAR space
ENCODING 32
SWIDTH 500 0
DWIDTH 7 0
BBX 1 1 4 0
BITMAP
00
ENDCHAR
STARTCHAR exclam
ENCODING 33
SWIDTH 500 0
DWIDTH 7 0
BBX 4 9 2 0
BITMAP
10
10
20
20
40
40
00
80
80
ENDCHAR
STARTCHAR quotedbl
ENCODING 34
SWIDTH 500 0
DWIDTH 7 0
BBX 6 3 3 7
BITMAP
24
48
90
ENDCHAR
STARTCHAR numbersign
ENCODING 35
SWIDTH 500 0
DWIDTH 7 0
BBX 8 9 0 0
BITMAP
0A
0A
3F
14
24
28
FC
50
50
ENDCHAR
STARTCHAR dollar
ENCODING 36
SWIDTH 500 0
DWIDTH 7 0
BBX 8 11 0 -1
BITMAP
02
0E
15
24
28
18
14
24
A8
70
40
ENDCHAR
STARTCHAR percent
ENCODING 37
SWIDTH 500 0
DWIDTH 7 0
BBX 11 9 -1 0
BITMAP
0880
1500
2A00
1400
0800
1400
2A00
5400
8800
ENDCHAR
STARTCHAR ampersand
ENCODING 38
SWIDTH 500 0
DWIDTH 7 0
BBX 8 9 -1 0
BITMAP
06
09
09
0E
38
4A
8C
88
74
ENDCHAR
STARTCHAR quotesingle
ENCODING 39
SWIDTH 500 0
DWIDTH 7 0
BBX 3 3 4 7
BITMAP
20
40
80
ENDCHAR
STARTCHAR parenleft
ENCODING 40
SWIDTH 500 0
DWIDTH 7 0
BBX 6 11 2 -1
BITMAP
04
08
10
20
40
40
80
80
80
80
40
ENDCHAR
STARTCHAR parenright
ENCODING 41
SWIDTH 466 0
DWIDTH 7 0
BBX 6 11 0 -1
BITMAP
08
04
04
04
04
08
08
10
20
40
80
ENDCHAR
STARTCHAR asterisk
ENCODING 42
SWIDTH 500 0
DWIDTH 7 0
BBX 6 5 1 2
BITMAP
10
54
78
A8
20
ENDCHAR
STARTCHAR plus
ENCODING 43
SWIDTH 500 0
DWIDTH 7 0
BBX 6 5 1 2
BITMAP
10
10
FC
20
20
ENDCHAR
STARTCHAR comma
ENCODING 44
SWIDTH 500 0
DWIDTH 7 0
BBX 3 4 0 -2
BITMAP
20
20
40
80
ENDCHAR
STARTCHAR hyphen
ENCODING 45
SWIDTH 500 0
DWIDTH 7 0
BBX 4 1 2 4
BITMAP
F0
ENDCHAR
STARTCHAR period
ENCODING 46
SWIDTH 500 0
DWIDTH 7 0
BBX 1 2 2 0
BITMAP
80
80
ENDCHAR
STARTCHAR slash
ENCODING 47
SWIDTH 500 0
DWIDTH 7 0
BBX 10 10 -1 0
BITMAP
0040
0080
0100
0200
0400
0800
1000
2000
4000
8000
ENDCHAR
STARTCHAR zero
ENCODING 48
SWIDTH 500 0
DWIDTH 7 0
BBX 8 9 0 0
BITMAP
0E
11
21
26
5A
64
84
88
70
ENDCHAR
STARTCHAR one
ENCODING 49
SWIDTH 500 0
DWIDTH 7 0
BBX 6 9 0 0
BITMAP
0C
14
28
08
10
10
20
20
F8
ENDCHAR
STARTCHAR two
ENCODING 50
SWIDTH 500 0
DWIDTH 7 0
BBX 8 9 0 0
BITMAP
0E
11
01
06
18
20
40
80
F8
ENDCHAR
STARTCHAR three
ENCODING 51
SWIDTH 500 0
DWIDTH 7 0
BBX 8 9 0 0
BITMAP
0E
11
01
02
0C
04
04
88
70
ENDCHAR
STARTCHAR four
ENCODING 52
SWIDTH 500 0
DWIDTH 7 0
BBX 7 9 1 0
BITMAP
0E
12
24
44
88
FC
08
10
10
ENDCHAR
STARTCHAR five
ENCODING 53
SWIDTH 500 0
DWIDTH 7 0
BBX 8 9 0 0
BITMAP
0F
10
10
20
38
04
04
88
70
ENDCHAR
STARTCHAR six
ENCODING 54
SWIDTH 500 0
DWIDTH 7 0
BBX 8 9 0 0
BITMAP
0E
11
20
20
78
44
84
88
70
ENDCHAR
STARTCHAR seven
ENCODING 55
SWIDTH 500 0
DWIDTH 7 0
BBX 6 9 2 0
BITMAP
7C
04
08
10
20
40
40
80
80
ENDCHAR
STARTCHAR eight
ENCODING 56
SWIDTH 500 0
DWIDTH 7 0
BBX 8 9 0 0
BITMAP
0E
11
21
22
3C
44
84
88
70
ENDCHAR
STARTCHAR nine
ENCODING 57
SWIDTH 500 0
DWIDTH 7 0
BBX 8 9 0 0
BITMAP
0E
11
21
22
1E
04
04
88
70
ENDCHAR
STARTCHAR colon
ENCODING 58
SWIDTH 500 0
DWIDTH 7 0
BBX 3 6 2 1
BITMAP
20
20
00
00
80
80
ENDCHAR
STARTCHAR semicolon
ENCODING 59
SWIDTH 500 0
DWIDTH 7 0
BBX 5 9 0 -2
BITMAP
08
08
00
00
00
20
20
40
80
ENDCHAR
STARTCHAR less
ENCODING 60
SWIDTH 500 0
DWIDTH 7 0
BBX 7 9 1 0
BITMAP
02
0C
30
40
80
40
40
20
20
ENDCHAR
STARTCHAR equal
ENCODING 61
SWIDTH 500 0
DWIDTH 7 0
BBX 7 5 0 2
BITMAP
3E
00
00
00
F8
ENDCHAR
STARTCHAR greater
ENCODING 62
SWIDTH 500 0
DWIDTH 7 0
BBX 7 9 -1 0
BITMAP
08
08
04
04
02
04
18
60
80
ENDCHAR
STARTCHAR question
ENCODING 63
SWIDTH 500 0
DWIDTH 7 0
BBX 6 9 2 0
BITMAP
38
44
84
08
30
40
00
80
80
ENDCHAR
STARTCHAR at
ENCODING 64
SWIDTH 500 0
DWIDTH 7 0
BBX 8 9 0 0
BITMAP
0E
11
25
2A
52
54
9C
80
78
ENDCHAR
STARTCHAR A
ENCODING 65
SWIDTH 500 0
DWIDTH 7 0
BBX 7 9 0 0
BITMAP
02
06
0A
12
22
7C
44
88
88
ENDCHAR
STARTCHAR B
ENCODING 66
SWIDTH 500 0
DWIDTH 7 0
BBX 8 9 0 0
BITMAP
1E
11
21
22
3C
44
44
88
F0
ENDCHAR
STARTCHAR C
ENCODING 67
SWIDTH 500 0
DWIDTH 7 0
BBX 8 9 0 0
BITMAP
0E
11
20
20
40
40
80
88
70
ENDCHAR
STARTCHAR D
ENCODING 68
SWIDTH 500 0
DWIDTH 7 0
BBX 8 9 -1 0
BITMAP
0E
09
11
11
21
22
42
44
F8
ENDCHAR
STARTCHAR E
ENCODING 69
SWIDTH 500 0
DWIDTH 7 0
BBX 8 9 0 0
BITMAP
1F
10
20
20
3C
40
40
80
F8
ENDCHAR
STARTCHAR F
ENCODING 70
SWIDTH 500 0
DWIDTH 7 0
BBX 8 9 0 0
BITMAP
1F
10
20
20
3C
40
40
80
80
ENDCHAR
STARTCHAR G
ENCODING 71
SWIDTH 500 0
DWIDTH 7 0
BBX 8 9 0 0
BITMAP
0E
11
20
20
4C
44
84
88
70
ENDCHAR
STARTCHAR H
ENCODING 72
SWIDTH 500 0
DWIDTH 7 0
BBX 8 9 0 0
BITMAP
11
11
22
22
3C
44
44
88
88
ENDCHAR
STARTCHAR I
ENCODING 73
SWIDTH 500 0
DWIDTH 7 0
BBX 8 9 0 0
BITMAP
1F
04
08
08
10
10
20
20
F8
ENDCHAR
STARTCHAR J
ENCODING 74
SWIDTH 500 0
DWIDTH 7 0
BBX 8 9 0 0
BITMAP
07
01
02
02
04
04
88
88
70
ENDCHAR
STARTCHAR K
ENCODING 75
SWIDTH 500 0
DWIDTH 7 0
BBX 8 9 0 0
BITMAP
11
12
24
28
30
48
48
88
88
ENDCHAR
STARTCHAR L
ENCODING 76
SWIDTH 500 0
DWIDTH 7 0
BBX 5 9 0 0
BITMAP
10
10
20
20
20
40
40
80
F8
ENDCHAR
STARTCHAR M
ENCODING 77
SWIDTH 500 0
DWIDTH 7 0
BBX 8 9 0 0
BITMAP
11
13
36
2A
54
54
44
88
88
ENDCHAR
STARTCHAR N
ENCODING 78
SWIDTH 500 0
DWIDTH 7 0
BBX 8 9 0 0
BITMAP
11
11
32
2A
4A
44
44
88
88
ENDCHAR
STARTCHAR O
ENCODING 79
SWIDTH 500 0
DWIDTH 7 0
BBX 8 9 0 0
BITMAP
0E
11
21
22
42
44
84
88
70
ENDCHAR
STARTCHAR P
ENCODING 80
SWIDTH 500 0
DWIDTH 7 0
BBX 8 9 0 0
BITMAP
0E
11
11
22
3C
40
40
80
80
ENDCHAR
STARTCHAR Q
ENCODING 81
SWIDTH 500 0
DWIDTH 7 0
BBX 8 10 0 -1
BITMAP
0E
11
21
22
42
44
A4
D8
70
08
ENDCHAR
STARTCHAR R
ENCODING 82
SWIDTH 500 0
DWIDTH 7 0
BBX 8 9 0 0
BITMAP
0E
11
11
22
3C
44
44
88
88
ENDCHAR
STARTCHAR S
ENCODING 83
SWIDTH 500 0
DWIDTH 7 0
BBX 8 9 0 0
BITMAP
0E
11
20
20
18
04
04
88
70
ENDCHAR
STARTCHAR T
ENCODING 84
SWIDTH 500 0
DWIDTH 7 0
BBX 6 9 2 0
BITMAP
7C
10
20
20
40
40
40
80
80
ENDCHAR
STARTCHAR U
ENCODING 85
SWIDTH 500 0
DWIDTH 7 0
BBX 8 9 0 0
BITMAP
11
11
22
22
44
44
88
88
70
ENDCHAR
STARTCHAR V
ENCODING 86
SWIDTH 500 0
DWIDTH 7 0
BBX 7 9 1 0
BITMAP
22
22
44
44
88
90
A0
C0
80
ENDCHAR
STARTCHAR W
ENCODING 87
SWIDTH 500 0
DWIDTH 7 0
BBX 8 9 0 0
BITMAP
11
11
22
22
54
54
A8
A8
50
ENDCHAR
STARTCHAR X
ENCODING 88
SWIDTH 500 0
DWIDTH 7 0
BBX 8 9 0 0
BITMAP
11
11
12
14
18
28
48
88
88
ENDCHAR
STARTCHAR Y
ENCODING 89
SWIDTH 500 0
DWIDTH 7 0
BBX 7 9 1 0
BITMAP
22
24
28
30
20
40
40
80
80
ENDCHAR
STARTCHAR Z
ENCODING 90
SWIDTH 500 0
DWIDTH 7 0
BBX 9 9 -1 0
BITMAP
0F80
0100
0200
0400
0800
1000
2000
4000
F800
ENDCHAR
STARTCHAR bracketleft
ENCODING 91
SWIDTH 500 0
DWIDTH 7 0
BBX 8 11 0 -1
BITMAP
07
08
08
10
10
20
20
40
40
80
E0
ENDCHAR
STARTCHAR backslash
ENCODING 92
SWIDTH 500 0
DWIDTH 7 0
BBX 2 10 3 0
BITMAP
80
80
80
80
80
40
40
40
40
40
ENDCHAR
STARTCHAR bracketright
ENCODING 93
SWIDTH 500 0
DWIDTH 7 0
BBX 8 11 0 -1
BITMAP
07
01
02
02
04
04
08
08
10
10
E0
ENDCHAR
STARTCHAR asciicircum
ENCODING 94
SWIDTH 500 0
DWIDTH 7 0
BBX 5 3 3 7
BITMAP
20
50
88
ENDCHAR
STARTCHAR underscore
ENCODING 95
SWIDTH 500 0
DWIDTH 7 0
BBX 6 1 -1 -1
BITMAP
FC
ENDCHAR
STARTCHAR grave
ENCODING 96
SWIDTH 500 0
DWIDTH 7 0
BBX 3 3 4 7
BITMAP
80
40
20
ENDCHAR
STARTCHAR a
ENCODING 97
SWIDTH 500 0
DWIDTH 7 0
BBX 6 7 0 0
BITMAP
38
04
04
78
88
90
70
ENDCHAR
STARTCHAR b
ENCODING 98
SWIDTH 500 0
DWIDTH 7 0
BBX 7 10 0 0
BITMAP
08
08
10
1C
22
22
44
44
88
F0
ENDCHAR
STARTCHAR c
ENCODING 99
SWIDTH 500 0
DWIDTH 7 0
BBX 7 7 0 0
BITMAP
1C
22
40
40
80
88
70
ENDCHAR
STARTCHAR d
ENCODING 100
SWIDTH 500 0
DWIDTH 7 0
BBX 8 10 0 0
BITMAP
01
01
02
1E
24
44
48
88
90
70
ENDCHAR
STARTCHAR e
ENCODING 101
SWIDTH 500 0
DWIDTH 7 0
BBX 6 7 0 0
BITMAP
18
24
44
78
80
88
70
ENDCHAR
STARTCHAR f
ENCODING 102
SWIDTH 500 0
DWIDTH 7 0
BBX 8 10 1 0
BITMAP
07
08
10
7C
20
20
40
40
80
80
ENDCHAR
STARTCHAR g
ENCODING 103
SWIDTH 500 0
DWIDTH 7 0
BBX 8 10 -1 -3
BITMAP
0F
11
22
22
44
44
38
08
10
E0
ENDCHAR
STARTCHAR h
ENCODING 104
SWIDTH 500 0
DWIDTH 7 0
BBX 7 10 0 0
BITMAP
08
08
10
1C
22
22
44
44
88
88
ENDCHAR
STARTCHAR i
ENCODING 105
SWIDTH 500 0
DWIDTH 7 0
BBX 5 10 2 0
BITMAP
08
08
00
60
20
40
40
80
80
C0
ENDCHAR
STARTCHAR j
ENCODING 106
SWIDTH 500 0
DWIDTH 7 0
BBX 8 12 -1 -2
BITMAP
01
01
00
06
02
04
04
08
08
10
10
E0
ENDCHAR
STARTCHAR k
ENCODING 107
SWIDTH 500 0
DWIDTH 7 0
BBX 7 10 0 0
BITMAP
08
08
10
12
24
28
50
50
88
88
ENDCHAR
STARTCHAR l
ENCODING 108
SWIDTH 500 0
DWIDTH 7 0
BBX 5 10 2 0
BITMAP
18
08
10
10
20
20
40
40
80
C0
ENDCHAR
STARTCHAR m
ENCODING 109
SWIDTH 500 0
DWIDTH 7 0
BBX 7 7 0 0
BITMAP
14
2A
2A
54
54
A8
A8
ENDCHAR
STARTCHAR n
ENCODING 110
SWIDTH 500 0
DWIDTH 7 0
BBX 7 7 0 0
BITMAP
1C
22
22
44
44
88
88
ENDCHAR
STARTCHAR o
ENCODING 111
SWIDTH 500 0
DWIDTH 7 0
BBX 7 7 0 0
BITMAP
1C
22
42
44
84
88
70
ENDCHAR
STARTCHAR p
ENCODING 112
SWIDTH 500 0
DWIDTH 7 0
BBX 8 10 -1 -3
BITMAP
0E
11
11
22
22
44
78
40
80
80
ENDCHAR
STARTCHAR q
ENCODING 113
SWIDTH 500 0
DWIDTH 7 0
BBX 7 10 0 -3
BITMAP
1E
22
44
44
88
88
70
10
20
20
ENDCHAR
STARTCHAR r
ENCODING 114
SWIDTH 500 0
DWIDTH 7 0
BBX 7 7 0 0
BITMAP
1C
22
22
40
40
80
80
ENDCHAR
STARTCHAR s
ENCODING 115
SWIDTH 500 0
DWIDTH 7 0
BBX 7 7 0 0
BITMAP
1C
22
20
10
08
88
70
ENDCHAR
STARTCHAR t
ENCODING 116
SWIDTH 500 0
DWIDTH 7 0
BBX 5 10 1 0
BITMAP
08
08
10
78
20
40
40
80
80
60
ENDCHAR
STARTCHAR u
ENCODING 117
SWIDTH 500 0
DWIDTH 7 0
BBX 7 7 0 0
BITMAP
22
22
44
44
88
88
70
ENDCHAR
STARTCHAR v
ENCODING 118
SWIDTH 500 0
DWIDTH 7 0
BBX 6 7 1 0
BITMAP
44
44
88
90
A0
C0
80
ENDCHAR
STARTCHAR w
ENCODING 119
SWIDTH 500 0
DWIDTH 7 0
BBX 7 7 1 0
BITMAP
42
42
84
A4
A8
D0
A0
ENDCHAR
STARTCHAR x
ENCODING 120
SWIDTH 500 0
DWIDTH 7 0
BBX 7 7 0 0
BITMAP
22
24
18
10
30
48
88
ENDCHAR
STARTCHAR y
ENCODING 121
SWIDTH 500 0
DWIDTH 7 0
BBX 8 10 -1 -3
BITMAP
11
11
22
22
44
44
38
08
10
E0
ENDCHAR
STARTCHAR z
ENCODING 122
SWIDTH 500 0
DWIDTH 7 0
BBX 7 7 0 0
BITMAP
3E
04
08
10
20
40
F8
ENDCHAR
STARTCHAR braceleft
ENCODING 123
SWIDTH 500 0
DWIDTH 7 0
BBX 7 11 1 -1
BITMAP
06
08
08
08
10
60
20
20
40
80
60
ENDCHAR
STARTCHAR bar
ENCODING 124
SWIDTH 500 0
DWIDTH 7 0
BBX 6 12 1 -1
BITMAP
04
04
08
08
10
10
20
20
40
40
80
80
ENDCHAR
STARTCHAR braceright
ENCODING 125
SWIDTH 500 0
DWIDTH 7 0
BBX 7 11 0 -1
BITMAP
0C
02
04
08
08
0C
10
20
20
20
C0
ENDCHAR
STARTCHAR asciitilde
ENCODING 126
SWIDTH 500 0
DWIDTH 7 0
BBX 6 2 1 4
BITMAP
64
98
ENDCHAR
STARTCHAR uni00A0
ENCODING 160
SWIDTH 466 0
DWIDTH 7 0
BBX 1 1 0 0
BITMAP
00
ENDCHAR
STARTCHAR exclamdown
ENCODING 161
SWIDTH 466 0
DWIDTH 7 0
BBX 4 9 1 -2
BITMAP
10
10
00
20
20
40
40
80
80
ENDCHAR
STARTCHAR cent
ENCODING 162
SWIDTH 500 0
DWIDTH 7 0
BBX 7 9 0 -1
BITMAP
04
1C
2A
50
50
A0
A8
70
40
ENDCHAR
STARTCHAR sterling
ENCODING 163
SWIDTH 466 0
DWIDTH 7 0
BBX 8 9 0 0
BITMAP
06
09
08
10
78
20
40
80
F8
ENDCHAR
STARTCHAR currency
ENCODING 164
SWIDTH 466 0
DWIDTH 7 0
BBX 7 6 0 1
BITMAP
5A
24
44
44
48
B4
ENDCHAR
STARTCHAR yen
ENCODING 165
SWIDTH 466 0
DWIDTH 7 0
BBX 8 9 0 0
BITMAP
11
12
14
18
7C
20
F8
40
40
ENDCHAR
STARTCHAR brokenbar
ENCODING 166
SWIDTH 466 0
DWIDTH 7 0
BBX 6 12 1 -1
BITMAP
04
04
08
08
10
00
00
20
40
40
80
80
ENDCHAR
STARTCHAR section
ENCODING 167
SWIDTH 466 0
DWIDTH 7 0
BBX 9 11 -1 -2
BITMAP
0300
0480
0800
1800
2400
2200
1200
0C00
0800
9000
6000
ENDCHAR
STARTCHAR dieresis
ENCODING 168
SWIDTH 466 0
DWIDTH 7 0
BBX 3 1 5 10
BITMAP
A0
ENDCHAR
STARTCHAR copyright
ENCODING 169
SWIDTH 466 0
DWIDTH 7 0
BBX 7 9 0 0
BITMAP
18
24
52
AA
A2
AA
94
48
30
ENDCHAR
STARTCHAR ordfeminine
ENCODING 170
SWIDTH 466 0
DWIDTH 7 0
BBX 6 7 1 2
BITMAP
18
04
38
48
30
00
F0
ENDCHAR
STARTCHAR guillemotleft
ENCODING 171
SWIDTH 466 0
DWIDTH 7 0
BBX 5 5 1 1
BITMAP
28
50
A0
A0
A0
ENDCHAR
STARTCHAR logicalnot
ENCODING 172
SWIDTH 466 0
DWIDTH 7 0
BBX 5 3 1 2
BITMAP
F8
08
10
ENDCHAR
STARTCHAR uni00AD
ENCODING 173
SWIDTH 500 0
DWIDTH 7 0
BBX 4 1 2 4
BITMAP
F0
ENDCHAR
STARTCHAR registered
ENCODING 174
SWIDTH 466 0
DWIDTH 7 0
BBX 7 9 0 0
BITMAP
18
24
5A
AA
B2
AA
AC
48
30
ENDCHAR
STARTCHAR macron
ENCODING 175
SWIDTH 466 0
DWIDTH 7 0
BBX 3 1 5 10
BITMAP
E0
ENDCHAR
STARTCHAR degree
ENCODING 176
SWIDTH 466 0
DWIDTH 7 0
BBX 4 4 4 6
BITMAP
60
90
90
60
ENDCHAR
STARTCHAR plusminus
ENCODING 177
SWIDTH 466 0
DWIDTH 7 0
BBX 8 7 -1 0
BITMAP
04
04
3F
08
08
00
FC
ENDCHAR
STARTCHAR uni00B2
ENCODING 178
SWIDTH 466 0
DWIDTH 7 0
BBX 5 5 3 5
BITMAP
30
48
30
40
F0
ENDCHAR
STARTCHAR uni00B3
ENCODING 179
SWIDTH 466 0
DWIDTH 7 0
BBX 5 5 3 5
BITMAP
70
08
30
10
E0
ENDCHAR
STARTCHAR acute
ENCODING 180
SWIDTH 466 0
DWIDTH 7 0
BBX 2 2 6 10
BITMAP
40
80
ENDCHAR
STARTCHAR mu
ENCODING 181
SWIDTH 466 0
DWIDTH 7 0
BBX 9 10 -2 -3
BITMAP
0880
0880
1100
1100
2200
2200
5E00
4000
8000
8000
ENDCHAR
STARTCHAR paragraph
ENCODING 182
SWIDTH 466 0
DWIDTH 7 0
BBX 7 11 1 -2
BITMAP
1E
3A
74
74
28
28
50
50
50
A0
A0
ENDCHAR
STARTCHAR periodcentered
ENCODING 183
SWIDTH 466 0
DWIDTH 7 0
BBX 1 2 3 3
BITMAP
80
80
ENDCHAR
STARTCHAR cedilla
ENCODING 184
SWIDTH 466 0
DWIDTH 7 0
BBX 3 3 0 -3
BITMAP
40
20
C0
ENDCHAR
STARTCHAR uni00B9
ENCODING 185
SWIDTH 466 0
DWIDTH 7 0
BBX 3 5 4 5
BITMAP
60
A0
40
40
E0
ENDCHAR
STARTCHAR ordmasculine
ENCODING 186
SWIDTH 466 0
DWIDTH 7 0
BBX 6 7 1 2
BITMAP
18
24
44
48
30
00
F0
ENDCHAR
STARTCHAR guillemotright
ENCODING 187
SWIDTH 500 0
DWIDTH 7 0
BBX 5 5 1 1
BITMAP
28
28
28
50
A0
ENDCHAR
STARTCHAR onequarter
ENCODING 188
SWIDTH 466 0
DWIDTH 7 0
BBX 6 10 1 0
BITMAP
10
30
10
24
68
34
58
A8
78
10
ENDCHAR
STARTCHAR onehalf
ENCODING 189
SWIDTH 466 0
DWIDTH 7 0
BBX 6 10 1 0
BITMAP
10
30
10
24
78
28
54
88
10
38
ENDCHAR
STARTCHAR threequarters
ENCODING 190
SWIDTH 466 0
DWIDTH 7 0
BBX 6 10 1 0
BITMAP
30
08
30
14
68
34
58
A8
78
10
ENDCHAR
STARTCHAR questiondown
ENCODING 191
SWIDTH 466 0
DWIDTH 7 0
BBX 6 9 -1 -2
BITMAP
04
04
00
08
30
40
84
88
70
ENDCHAR
STARTCHAR Agrave
ENCODING 192
SWIDTH 500 0
DWIDTH 7 0
BBX 7 12 0 0
BITMAP
04
02
00
02
06
0A
12
22
7C
44
88
88
ENDCHAR
STARTCHAR Aacute
ENCODING 193
SWIDTH 500 0
DWIDTH 7 0
BBX 8 12 0 0
BITMAP
01
02
00
02
06
0A
12
22
7C
44
88
88
ENDCHAR
STARTCHAR Acircumflex
ENCODING 194
SWIDTH 500 0
DWIDTH 7 0
BBX 8 12 0 0
BITMAP
02
05
00
02
06
0A
12
22
7C
44
88
88
ENDCHAR
STARTCHAR Atilde
ENCODING 195
SWIDTH 500 0
DWIDTH 7 0
BBX 9 12 0 0
BITMAP
0280
0500
0000
0200
0600
0A00
1200
2200
7C00
4400
8800
8800
ENDCHAR
STARTCHAR Adieresis
ENCODING 196
SWIDTH 500 0
DWIDTH 7 0
BBX 8 11 0 0
BITMAP
05
00
02
06
0A
12
22
7C
44
88
88
ENDCHAR
STARTCHAR Aring
ENCODING 197
SWIDTH 500 0
DWIDTH 7 0
BBX 8 11 0 0
BITMAP
02
05
02
06
0A
12
22
7C
44
88
88
ENDCHAR
STARTCHAR AE
ENCODING 198
SWIDTH 466 0
DWIDTH 7 0
BBX 8 9 0 0
BITMAP
07
0C
18
28
5C
70
50
A0
B8
ENDCHAR
STARTCHAR Ccedilla
ENCODING 199
SWIDTH 500 0
DWIDTH 7 0
BBX 8 12 0 -3
BITMAP
0E
11
20
20
40
40
80
88
70
40
20
C0
ENDCHAR
STARTCHAR Egrave
ENCODING 200
SWIDTH 500 0
DWIDTH 7 0
BBX 8 12 0 0
BITMAP
04
02
00
1F
10
20
20
3C
40
40
80
F8
ENDCHAR
STARTCHAR Eacute
ENCODING 201
SWIDTH 500 0
DWIDTH 7 0
BBX 8 12 0 0
BITMAP
01
02
00
1F
10
20
20
3C
40
40
80
F8
ENDCHAR
STARTCHAR Ecircumflex
ENCODING 202
SWIDTH 500 0
DWIDTH 7 0
BBX 8 12 0 0
BITMAP
02
05
00
1F
10
20
20
3C
40
40
80
F8
ENDCHAR
STARTCHAR Edieresis
ENCODING 203
SWIDTH 500 0
DWIDTH 7 0
BBX 8 11 0 0
BITMAP
05
00
1F
10
20
20
3C
40
40
80
F8
ENDCHAR
STARTCHAR Igrave
ENCODING 204
SWIDTH 500 0
DWIDTH 7 0
BBX 8 12 0 0
BITMAP
04
02
00
1F
04
08
08
10
10
20
20
F8
ENDCHAR
STARTCHAR Iacute
ENCODING 205
SWIDTH 500 0
DWIDTH 7 0
BBX 8 12 0 0
BITMAP
01
02
00
1F
04
08
08
10
10
20
20
F8
ENDCHAR
STARTCHAR Icircumflex
ENCODING 206
SWIDTH 500 0
DWIDTH 7 0
BBX 8 12 0 0
BITMAP
02
05
00
1F
04
08
08
10
10
20
20
F8
ENDCHAR
STARTCHAR Idieresis
ENCODING 207
SWIDTH 500 0
DWIDTH 7 0
BBX 8 11 0 0
BITMAP
05
00
1F
04
08
08
10
10
20
20
F8
ENDCHAR
STARTCHAR Eth
ENCODING 208
SWIDTH 500 0
DWIDTH 7 0
BBX 8 9 -1 0
BITMAP
0E
09
11
11
79
22
42
44
F8
ENDCHAR
STARTCHAR Ntilde
ENCODING 209
SWIDTH 500 0
DWIDTH 7 0
BBX 9 12 0 0
BITMAP
0280
0500
0000
1100
1100
3200
2A00
4A00
4400
4400
8800
8800
ENDCHAR
STARTCHAR Ograve
ENCODING 210
SWIDTH 500 0
DWIDTH 7 0
BBX 8 12 0 0
BITMAP
04
02
00
0E
11
21
22
42
44
84
88
70
ENDCHAR
STARTCHAR Oacute
ENCODING 211
SWIDTH 500 0
DWIDTH 7 0
BBX 8 12 0 0
BITMAP
01
02
00
0E
11
21
22
42
44
84
88
70
ENDCHAR
STARTCHAR Ocircumflex
ENCODING 212
SWIDTH 500 0
DWIDTH 7 0
BBX 8 12 0 0
BITMAP
02
05
00
0E
11
21
22
42
44
84
88
70
ENDCHAR
STARTCHAR Otilde
ENCODING 213
SWIDTH 500 0
DWIDTH 7 0
BBX 9 12 0 0
BITMAP
0280
0500
0000
0E00
1100
2100
2200
4200
4400
8400
8800
7000
ENDCHAR
STARTCHAR Odieresis
ENCODING 214
SWIDTH 500 0
DWIDTH 7 0
BBX 8 11 0 0
BITMAP
05
00
0E
11
21
22
42
44
84
88
70
ENDCHAR
STARTCHAR multiply
ENCODING 215
SWIDTH 466 0
DWIDTH 7 0
BBX 6 5 1 2
BITMAP
24
28
30
50
90
ENDCHAR
STARTCHAR Oslash
ENCODING 216
SWIDTH 466 0
DWIDTH 7 0
BBX 11 11 -1 -1
BITMAP
0020
0740
0880
0980
1280
1500
2900
3200
2200
5C00
8000
ENDCHAR
STARTCHAR Ugrave
ENCODING 217
SWIDTH 500 0
DWIDTH 7 0
BBX 8 12 0 0
BITMAP
04
02
00
11
11
22
22
44
44
88
88
70
ENDCHAR
STARTCHAR Uacute
ENCODING 218
SWIDTH 500 0
DWIDTH 7 0
BBX 8 12 0 0
BITMAP
01
02
00
11
11
22
22
44
44
88
88
70
ENDCHAR
STARTCHAR Ucircumflex
ENCODING 219
SWIDTH 500 0
DWIDTH 7 0
BBX 8 12 0 0
BITMAP
02
05
00
11
11
22
22
44
44
88
88
70
ENDCHAR
STARTCHAR Udieresis
ENCODING 220
SWIDTH 500 0
DWIDTH 7 0
BBX 8 11 0 0
BITMAP
05
00
11
11
22
22
44
44
88
88
70
ENDCHAR
STARTCHAR Yacute
ENCODING 221
SWIDTH 500 0
DWIDTH 7 0
BBX 7 12 1 0
BITMAP
02
04
00
22
24
28
30
20
40
40
80
80
ENDCHAR
STARTCHAR Thorn
ENCODING 222
SWIDTH 466 0
DWIDTH 7 0
BBX 7 9 0 0
BITMAP
10
10
1C
22
22
44
78
80
80
ENDCHAR
STARTCHAR germandbls
ENCODING 223
SWIDTH 466 0
DWIDTH 7 0
BBX 7 9 0 0
BITMAP
0C
12
12
24
28
44
44
88
B0
ENDCHAR
STARTCHAR agrave
ENCODING 224
SWIDTH 500 0
DWIDTH 7 0
BBX 6 10 0 0
BITMAP
08
04
00
38
04
04
78
88
90
70
ENDCHAR
STARTCHAR aacute
ENCODING 225
SWIDTH 500 0
DWIDTH 7 0
BBX 7 10 0 0
BITMAP
02
04
00
38
04
04
78
88
90
70
ENDCHAR
STARTCHAR acircumflex
ENCODING 226
SWIDTH 500 0
DWIDTH 7 0
BBX 7 10 0 0
BITMAP
04
0A
00
38
04
04
78
88
90
70
ENDCHAR
STARTCHAR atilde
ENCODING 227
SWIDTH 500 0
DWIDTH 7 0
BBX 8 10 0 0
BITMAP
05
0A
00
38
04
04
78
88
90
70
ENDCHAR
STARTCHAR adieresis
ENCODING 228
SWIDTH 500 0
DWIDTH 7 0
BBX 7 9 0 0
BITMAP
0A
00
38
04
04
78
88
90
70
ENDCHAR
STARTCHAR aring
ENCODING 229
SWIDTH 500 0
DWIDTH 7 0
BBX 7 10 0 0
BITMAP
04
0A
04
38
04
04
78
88
90
70
ENDCHAR
STARTCHAR ae
ENCODING 230
SWIDTH 466 0
DWIDTH 7 0
BBX 6 7 0 0
BITMAP
28
54
14
78
A0
A8
50
ENDCHAR
STARTCHAR ccedilla
ENCODING 231
SWIDTH 500 0
DWIDTH 7 0
BBX 7 10 0 -3
BITMAP
1C
22
40
40
80
88
70
40
20
C0
ENDCHAR
STARTCHAR egrave
ENCODING 232
SWIDTH 500 0
DWIDTH 7 0
BBX 6 10 0 0
BITMAP
08
04
00
18
24
44
78
80
88
70
ENDCHAR
STARTCHAR eacute
ENCODING 233
SWIDTH 500 0
DWIDTH 7 0
BBX 7 10 0 0
BITMAP
02
04
00
18
24
44
78
80
88
70
ENDCHAR
STARTCHAR ecircumflex
ENCODING 234
SWIDTH 500 0
DWIDTH 7 0
BBX 7 10 0 0
BITMAP
04
0A
00
18
24
44
78
80
88
70
ENDCHAR
STARTCHAR edieresis
ENCODING 235
SWIDTH 500 0
DWIDTH 7 0
BBX 7 9 0 0
BITMAP
0A
00
18
24
44
78
80
88
70
ENDCHAR
STARTCHAR igrave
ENCODING 236
SWIDTH 466 0
DWIDTH 7 0
BBX 4 10 2 0
BITMAP
20
10
00
60
20
40
40
80
80
C0
ENDCHAR
STARTCHAR iacute
ENCODING 237
SWIDTH 466 0
DWIDTH 7 0
BBX 5 10 2 0
BITMAP
08
10
00
60
20
40
40
80
80
C0
ENDCHAR
STARTCHAR icircumflex
ENCODING 238
SWIDTH 466 0
DWIDTH 7 0
BBX 5 10 2 0
BITMAP
10
28
00
60
20
40
40
80
80
C0
ENDCHAR
STARTCHAR idieresis
ENCODING 239
SWIDTH 466 0
DWIDTH 7 0
BBX 5 9 2 0
BITMAP
28
00
60
20
40
40
80
80
C0
ENDCHAR
STARTCHAR eth
ENCODING 240
SWIDTH 466 0
DWIDTH 7 0
BBX 8 10 0 0
BITMAP
09
06
0A
02
1A
24
44
88
90
60
ENDCHAR
STARTCHAR ntilde
ENCODING 241
SWIDTH 500 0
DWIDTH 7 0
BBX 8 10 0 0
BITMAP
05
0A
00
1C
22
22
44
44
88
88
ENDCHAR
STARTCHAR ograve
ENCODING 242
SWIDTH 500 0
DWIDTH 7 0
BBX 7 10 0 0
BITMAP
08
04
00
1C
22
42
44
84
88
70
ENDCHAR
STARTCHAR oacute
ENCODING 243
SWIDTH 500 0
DWIDTH 7 0
BBX 7 10 0 0
BITMAP
02
04
00
1C
22
42
44
84
88
70
ENDCHAR
STARTCHAR ocircumflex
ENCODING 244
SWIDTH 500 0
DWIDTH 7 0
BBX 7 10 0 0
BITMAP
04
0A
00
1C
22
42
44
84
88
70
ENDCHAR
STARTCHAR otilde
ENCODING 245
SWIDTH 500 0
DWIDTH 7 0
BBX 8 10 0 0
BITMAP
05
0A
00
1C
22
42
44
84
88
70
ENDCHAR
STARTCHAR odieresis
ENCODING 246
SWIDTH 500 0
DWIDTH 7 0
BBX 7 9 0 0
BITMAP
0A
00
1C
22
42
44
84
88
70
ENDCHAR
STARTCHAR divide
ENCODING 247
SWIDTH 466 0
DWIDTH 7 0
BBX 5 5 1 2
BITMAP
10
00
F8
00
40
ENDCHAR
STARTCHAR oslash
ENCODING 248
SWIDTH 466 0
DWIDTH 7 0
BBX 9 9 -1 -1
BITMAP
0080
0F00
1300
2500
2A00
5200
6400
7800
8000
ENDCHAR
STARTCHAR ugrave
ENCODING 249
SWIDTH 500 0
DWIDTH 7 0
BBX 7 10 0 0
BITMAP
08
04
00
22
22
44
44
88
88
70
ENDCHAR
STARTCHAR uacute
ENCODING 250
SWIDTH 500 0
DWIDTH 7 0
BBX 7 10 0 0
BITMAP
02
04
00
22
22
44
44
88
88
70
ENDCHAR
STARTCHAR ucircumflex
ENCODING 251
SWIDTH 500 0
DWIDTH 7 0
BBX 7 10 0 0
BITMAP
04
0A
00
22
22
44
44
88
88
70
ENDCHAR
STARTCHAR udieresis
ENCODING 252
SWIDTH 500 0
DWIDTH 7 0
BBX 7 9 0 0
BITMAP
0A
00
22
22
44
44
88
88
70
ENDCHAR
STARTCHAR yacute
ENCODING 253
SWIDTH 500 0
DWIDTH 7 0
BBX 8 13 -1 -3
BITMAP
01
02
00
11
11
22
22
44
44
38
08
10
E0
ENDCHAR
STARTCHAR thorn
ENCODING 254
SWIDTH 466 0
DWIDTH 7 0
BBX 8 13 -1 -3
BITMAP
04
04
08
0E
11
11
22
22
44
78
40
80
80
ENDCHAR
STARTCHAR ydieresis
ENCODING 255
SWIDTH 500 0
DWIDTH 7 0
BBX 8 12 -1 -3
BITMAP
05
00
11
11
22
22
44
44
38
08
10
E0
ENDCHAR
STARTCHAR dotlessi
ENCODING 305
SWIDTH 466 0
DWIDTH 7 0
BBX 3 7 2 0
BITMAP
60
20
40
40
80
80
C0
ENDCHAR
STARTCHAR gravecomb
ENCODING 768
SWIDTH 0 0
DWIDTH 0 0
BBX 2 2 -2 10
BITMAP
80
40
ENDCHAR
STARTCHAR acutecomb
ENCODING 769
SWIDTH 0 0
DWIDTH 0 0
BBX 2 2 -1 10
BITMAP
40
80
ENDCHAR
STARTCHAR uni0302
ENCODING 770
SWIDTH 0 0
DWIDTH 0 0
BBX 3 2 -2 10
BITMAP
40
A0
ENDCHAR
STARTCHAR tildecomb
ENCODING 771
SWIDTH 0 0
DWIDTH 0 0
BBX 4 2 -2 10
BITMAP
50
A0
ENDCHAR
STARTCHAR uni0308
ENCODING 776
SWIDTH 0 0
DWIDTH 0 0
BBX 3 1 -2 10
BITMAP
A0
ENDCHAR
STARTCHAR uni030A
ENCODING 778
SWIDTH 0 0
DWIDTH 0 0
BBX 3 3 -2 9
BITMAP
40
A0
40
ENDCHAR
STARTCHAR uni0327
ENCODING 807
SWIDTH 0 0
DWIDTH 0 0
BBX 3 3 -7 -3
BITMAP
40
20
C0
ENDCHAR
STARTCHAR lambda
ENCODING 955
SWIDTH 500 0
DWIDTH 7 0
BBX 6 9 -1 0
BITMAP
18
04
04
04
08
18
28
48
84
ENDCHAR
STARTCHAR uni2010
ENCODING 8208
SWIDTH 466 0
DWIDTH 7 0
BBX 4 1 2 4
BITMAP
F0
ENDCHAR
STARTCHAR uni2011
ENCODING 8209
SWIDTH 466 0
DWIDTH 7 0
BBX 4 1 2 4
BITMAP
F0
ENDCHAR
STARTCHAR figuredash
ENCODING 8210
SWIDTH 466 0
DWIDTH 7 0
BBX 5 1 1 4
BITMAP
F8
ENDCHAR
STARTCHAR endash
ENCODING 8211
SWIDTH 466 0
DWIDTH 7 0
BBX 5 1 1 4
BITMAP
F8
ENDCHAR
STARTCHAR emdash
ENCODING 8212
SWIDTH 466 0
DWIDTH 7 0
BBX 7 1 0 4
BITMAP
FE
ENDCHAR
STARTCHAR uni2015
ENCODING 8213
SWIDTH 466 0
DWIDTH 7 0
BBX 7 1 0 4
BITMAP
FE
ENDCHAR
STARTCHAR quoteleft
ENCODING 8216
SWIDTH 466 0
DWIDTH 7 0
BBX 3 4 4 6
BITMAP
20
40
80
C0
ENDCHAR
STARTCHAR quoteright
ENCODING 8217
SWIDTH 466 0
DWIDTH 7 0
BBX 3 4 3 6
BITMAP
60
20
40
80
ENDCHAR
STARTCHAR quotesinglbase
ENCODING 8218
SWIDTH 466 0
DWIDTH 7 0
BBX 3 4 0 -2
BITMAP
60
20
40
80
ENDCHAR
STARTCHAR quotereversed
ENCODING 8219
SWIDTH 466 0
DWIDTH 7 0
BBX 3 4 5 6
BITMAP
60
40
80
80
ENDCHAR
STARTCHAR quotedblleft
ENCODING 8220
SWIDTH 466 0
DWIDTH 7 0
BBX 6 4 3 6
BITMAP
24
48
90
D8
ENDCHAR
STARTCHAR quotedblright
ENCODING 8221
SWIDTH 466 0
DWIDTH 7 0
BBX 6 4 2 6
BITMAP
6C
24
48
90
ENDCHAR
STARTCHAR quotedblbase
ENCODING 8222
SWIDTH 466 0
DWIDTH 7 0
BBX 6 4 -1 -2
BITMAP
6C
24
48
90
ENDCHAR
STARTCHAR uni201F
ENCODING 8223
SWIDTH 466 0
DWIDTH 7 0
BBX 6 4 3 6
BITMAP
6C
48
90
90
ENDCHAR
STARTCHAR dagger
ENCODING 8224
SWIDTH 466 0
DWIDTH 7 0
BBX 5 10 1 -1
BITMAP
08
08
10
78
20
20
40
40
80
80
ENDCHAR
STARTCHAR daggerdbl
ENCODING 8225
SWIDTH 466 0
DWIDTH 7 0
BBX 5 10 1 -1
BITMAP
08
08
10
78
20
20
F0
40
80
80
ENDCHAR
STARTCHAR bullet
ENCODING 8226
SWIDTH 466 0
DWIDTH 7 0
BBX 3 4 3 3
BITMAP
60
E0
E0
C0
ENDCHAR
STARTCHAR onedotenleader
ENCODING 8228
SWIDTH 466 0
DWIDTH 7 0
BBX 1 2 2 0
BITMAP
80
80
ENDCHAR
STARTCHAR twodotenleader
ENCODING 8229
SWIDTH 466 0
DWIDTH 7 0
BBX 4 2 1 0
BITMAP
90
90
ENDCHAR
STARTCHAR ellipsis
ENCODING 8230
SWIDTH 466 0
DWIDTH 7 0
BBX 5 2 0 0
BITMAP
A8
A8
ENDCHAR
STARTCHAR perthousand
ENCODING 8240
SWIDTH 466 0
DWIDTH 7 0
BBX 6 9 1 0
BITMAP
20
50
24
18
60
80
50
A8
50
ENDCHAR
STARTCHAR guilsinglleft
ENCODING 8249
SWIDTH 466 0
DWIDTH 7 0
BBX 3 5 2 1
BITMAP
20
40
80
80
80
ENDCHAR
STARTCHAR guilsinglright
ENCODING 8250
SWIDTH 466 0
DWIDTH 7 0
BBX 3 5 2 1
BITMAP
20
20
20
40
80
ENDCHAR
STARTCHAR uni203B
ENCODING 8251
SWIDTH 466 0
DWIDTH 7 0
BBX 6 7 1 1
BITMAP
08
24
28
B4
50
90
40
ENDCHAR
STARTCHAR uni203D
ENCODING 8253
SWIDTH 466 0
DWIDTH 7 0
BBX 6 9 2 0
BITMAP
38
54
A4
28
70
40
00
80
80
ENDCHAR
STARTCHAR uni25CC
ENCODING 9676
SWIDTH 466 0
DWIDTH 7 0
BBX 7 7 0 1
BITMAP
08
22
00
82
00
88
20
ENDCHAR
STARTCHAR uni27E6
ENCODING 10214
SWIDTH 500 0
DWIDTH 7 0
BBX 10 11 -1 -1
BITMAP
07C0
0A00
0A00
1400
1400
2800
2800
5000
5000
A000
F800
ENDCHAR
STARTCHAR uni27E7
ENCODING 10215
SWIDTH 500 0
DWIDTH 7 0
BBX 10 11 -1 -1
BITMAP
07C0
0140
0280
0280
0500
0500
0A00
0A00
1400
1400
F800
ENDCHAR
STARTCHAR uni2801
ENCODING 10241
SWIDTH 466 0
DWIDTH 7 0
BBX 2 2 3 8
BITMAP
C0
C0
ENDCHAR
STARTCHAR uni2802
ENCODING 10242
SWIDTH 466 0
DWIDTH 7 0
BBX 2 2 1 4
BITMAP
C0
C0
ENDCHAR
STARTCHAR uni2803
ENCODING 10243
SWIDTH 466 0
DWIDTH 7 0
BBX 4 6 1 4
BITMAP
30
30
00
00
C0
C0
ENDCHAR
STARTCHAR uni2804
ENCODING 10244
SWIDTH 466 0
DWIDTH 7 0
BBX 2 2 -1 0
BITMAP
C0
C0
ENDCHAR
STARTCHAR uni2805
ENCODING 10245
SWIDTH 466 0
DWIDTH 7 0
BBX 6 10 -1 0
BITMAP
0C
0C
00
00
00
00
00
00
C0
C0
ENDCHAR
STARTCHAR uni2806
ENCODING 10246
SWIDTH 466 0
DWIDTH 7 0
BBX 4 6 -1 0
BITMAP
30
30
00
00
C0
C0
ENDCHAR
STARTCHAR uni2807
ENCODING 10247
SWIDTH 466 0
DWIDTH 7 0
BBX 6 10 -1 0
BITMAP
0C
0C
00
00
30
30
00
00
C0
C0
ENDCHAR
STARTCHAR uni2808
ENCODING 10248
SWIDTH 466 0
DWIDTH 7 0
BBX 2 2 7 8
BITMAP
C0
C0
ENDCHAR
STARTCHAR uni2809
ENCODING 10249
SWIDTH 466 0
DWIDTH 7 0
BBX 6 2 3 8
BITMAP
CC
CC
ENDCHAR
STARTCHAR uni280A
ENCODING 10250
SWIDTH 466 0
DWIDTH 7 0
BBX 8 6 1 4
BITMAP
03
03
00
00
C0
C0
ENDCHAR
STARTCHAR uni280B
ENCODING 10251
SWIDTH 466 0
DWIDTH 7 0
BBX 8 6 1 4
BITMAP
33
33
00
00
C0
C0
ENDCHAR
STARTCHAR uni280C
ENCODING 10252
SWIDTH 466 0
DWIDTH 7 0
BBX 10 10 -1 0
BITMAP
00C0
00C0
0000
0000
0000
0000
0000
0000
C000
C000
ENDCHAR
STARTCHAR uni280D
ENCODING 10253
SWIDTH 466 0
DWIDTH 7 0
BBX 10 10 -1 0
BITMAP
0CC0
0CC0
0000
0000
0000
0000
0000
0000
C000
C000
ENDCHAR
STARTCHAR uni280E
ENCODING 10254
SWIDTH 466 0
DWIDTH 7 0
BBX 10 10 -1 0
BITMAP
00C0
00C0
0000
0000
3000
3000
0000
0000
C000
C000
ENDCHAR
STARTCHAR uni280F
ENCODING 10255
SWIDTH 466 0
DWIDTH 7 0
BBX 10 10 -1 0
BITMAP
0CC0
0CC0
0000
0000
3000
3000
0000
0000
C000
C000
ENDCHAR
STARTCHAR uni2810
ENCODING 10256
SWIDTH 466 0
DWIDTH 7 0
BBX 2 2 5 4
BITMAP
C0
C0
ENDCHAR
STARTCHAR uni2811
ENCODING 10257
SWIDTH 466 0
DWIDTH 7 0
BBX 4 6 3 4
BITMAP
C0
C0
00
00
30
30
ENDCHAR
STARTCHAR uni2812
ENCODING 10258
SWIDTH 466 0
DWIDTH 7 0
BBX 6 2 1 4
BITMAP
CC
CC
ENDCHAR
STARTCHAR uni2813
ENCODING 10259
SWIDTH 466 0
DWIDTH 7 0
BBX 6 6 1 4
BITMAP
30
30
00
00
CC
CC
ENDCHAR
STARTCHAR uni2814
ENCODING 10260
SWIDTH 466 0
DWIDTH 7 0
BBX 8 6 -1 0
BITMAP
03
03
00
00
C0
C0
ENDCHAR
STARTCHAR uni2815
ENCODING 10261
SWIDTH 466 0
DWIDTH 7 0
BBX 8 10 -1 0
BITMAP
0C
0C
00
00
03
03
00
00
C0
C0
ENDCHAR
STARTCHAR uni2816
ENCODING 10262
SWIDTH 466 0
DWIDTH 7 0
BBX 8 6 -1 0
BITMAP
33
33
00
00
C0
C0
ENDCHAR
STARTCHAR uni2817
ENCODING 10263
SWIDTH 466 0
DWIDTH 7 0
BBX 8 10 -1 0
BITMAP
0C
0C
00
00
33
33
00
00
C0
C0
ENDCHAR
STARTCHAR uni2818
ENCODING 10264
SWIDTH 466 0
DWIDTH 7 0
BBX 4 6 5 4
BITMAP
30
30
00
00
C0
C0
ENDCHAR
STARTCHAR uni2819
ENCODING 10265
SWIDTH 466 0
DWIDTH 7 0
BBX 6 6 3 4
BITMAP
CC
CC
00
00
30
30
ENDCHAR
STARTCHAR uni281A
ENCODING 10266
SWIDTH 466 0
DWIDTH 7 0
BBX 8 6 1 4
BITMAP
03
03
00
00
CC
CC
ENDCHAR
STARTCHAR uni281B
ENCODING 10267
SWIDTH 466 0
DWIDTH 7 0
BBX 8 6 1 4
BITMAP
33
33
00
00
CC
CC
ENDCHAR
STARTCHAR uni281C
ENCODING 10268
SWIDTH 466 0
DWIDTH 7 0
BBX 10 10 -1 0
BITMAP
00C0
00C0
0000
0000
0300
0300
0000
0000
C000
C000
ENDCHAR
STARTCHAR uni281D
ENCODING 10269
SWIDTH 466 0
DWIDTH 7 0
BBX 10 10 -1 0
BITMAP
0CC0
0CC0
0000
0000
0300
0300
0000
0000
C000
C000
ENDCHAR
STARTCHAR uni281E
ENCODING 10270
SWIDTH 466 0
DWIDTH 7 0
BBX 10 10 -1 0
BITMAP
00C0
00C0
0000
0000
3300
3300
0000
0000
C000
C000
ENDCHAR
STARTCHAR uni281F
ENCODING 10271
SWIDTH 466 0
DWIDTH 7 0
BBX 10 10 -1 0
BITMAP
0CC0
0CC0
0000
0000
3300
3300
0000
0000
C000
C000
ENDCHAR
STARTCHAR uni2820
ENCODING 10272
SWIDTH 466 0
DWIDTH 7 0
BBX 2 2 3 0
BITMAP
C0
C0
ENDCHAR
STARTCHAR uni2821
ENCODING 10273
SWIDTH 466 0
DWIDTH 7 0
BBX 2 10 3 0
BITMAP
C0
C0
00
00
00
00
00
00
C0
C0
ENDCHAR
STARTCHAR uni2822
ENCODING 10274
SWIDTH 466 0
DWIDTH 7 0
BBX 4 6 1 0
BITMAP
C0
C0
00
00
30
30
ENDCHAR
STARTCHAR uni2823
ENCODING 10275
SWIDTH 466 0
DWIDTH 7 0
BBX 4 10 1 0
BITMAP
30
30
00
00
C0
C0
00
00
30
30
ENDCHAR
STARTCHAR uni2824
ENCODING 10276
SWIDTH 466 0
DWIDTH 7 0
BBX 6 2 -1 0
BITMAP
CC
CC
ENDCHAR
STARTCHAR uni2825
ENCODING 10277
SWIDTH 466 0
DWIDTH 7 0
BBX 6 10 -1 0
BITMAP
0C
0C
00
00
00
00
00
00
CC
CC
ENDCHAR
STARTCHAR uni2826
ENCODING 10278
SWIDTH 466 0
DWIDTH 7 0
BBX 6 6 -1 0
BITMAP
30
30
00
00
CC
CC
ENDCHAR
STARTCHAR uni2827
ENCODING 10279
SWIDTH 466 0
DWIDTH 7 0
BBX 6 10 -1 0
BITMAP
0C
0C
00
00
30
30
00
00
CC
CC
ENDCHAR
STARTCHAR uni2828
ENCODING 10280
SWIDTH 466 0
DWIDTH 7 0
BBX 6 10 3 0
BITMAP
0C
0C
00
00
00
00
00
00
C0
C0
ENDCHAR
STARTCHAR uni2829
ENCODING 10281
SWIDTH 466 0
DWIDTH 7 0
BBX 6 10 3 0
BITMAP
CC
CC
00
00
00
00
00
00
C0
C0
ENDCHAR
STARTCHAR uni282A
ENCODING 10282
SWIDTH 466 0
DWIDTH 7 0
BBX 8 10 1 0
BITMAP
03
03
00
00
C0
C0
00
00
30
30
ENDCHAR
STARTCHAR uni282B
ENCODING 10283
SWIDTH 466 0
DWIDTH 7 0
BBX 8 10 1 0
BITMAP
33
33
00
00
C0
C0
00
00
30
30
ENDCHAR
STARTCHAR uni282C
ENCODING 10284
SWIDTH 466 0
DWIDTH 7 0
BBX 10 10 -1 0
BITMAP
00C0
00C0
0000
0000
0000
0000
0000
0000
CC00
CC00
ENDCHAR
STARTCHAR uni282D
ENCODING 10285
SWIDTH 466 0
DWIDTH 7 0
BBX 10 10 -1 0
BITMAP
0CC0
0CC0
0000
0000
0000
0000
0000
0000
CC00
CC00
ENDCHAR
STARTCHAR uni282E
ENCODING 10286
SWIDTH 466 0
DWIDTH 7 0
BBX 10 10 -1 0
BITMAP
00C0
00C0
0000
0000
3000
3000
0000
0000
CC00
CC00
ENDCHAR
STARTCHAR uni282F
ENCODING 10287
SWIDTH 466 0
DWIDTH 7 0
BBX 10 10 -1 0
BITMAP
0CC0
0CC0
0000
0000
3000
3000
0000
0000
CC00
CC00
ENDCHAR
STARTCHAR uni2830
ENCODING 10288
SWIDTH 466 0
DWIDTH 7 0
BBX 4 6 3 0
BITMAP
30
30
00
00
C0
C0
ENDCHAR
STARTCHAR uni2831
ENCODING 10289
SWIDTH 466 0
DWIDTH 7 0
BBX 4 10 3 0
BITMAP
C0
C0
00
00
30
30
00
00
C0
C0
ENDCHAR
STARTCHAR uni2832
ENCODING 10290
SWIDTH 466 0
DWIDTH 7 0
BBX 6 6 1 0
BITMAP
CC
CC
00
00
30
30
ENDCHAR
STARTCHAR uni2833
ENCODING 10291
SWIDTH 466 0
DWIDTH 7 0
BBX 6 10 1 0
BITMAP
30
30
00
00
CC
CC
00
00
30
30
ENDCHAR
STARTCHAR uni2834
ENCODING 10292
SWIDTH 466 0
DWIDTH 7 0
BBX 8 6 -1 0
BITMAP
03
03
00
00
CC
CC
ENDCHAR
STARTCHAR uni2835
ENCODING 10293
SWIDTH 466 0
DWIDTH 7 0
BBX 8 10 -1 0
BITMAP
0C
0C
00
00
03
03
00
00
CC
CC
ENDCHAR
STARTCHAR uni2836
ENCODING 10294
SWIDTH 466 0
DWIDTH 7 0
BBX 8 6 -1 0
BITMAP
33
33
00
00
CC
CC
ENDCHAR
STARTCHAR uni2837
ENCODING 10295
SWIDTH 466 0
DWIDTH 7 0
BBX 8 10 -1 0
BITMAP
0C
0C
00
00
33
33
00
00
CC
CC
ENDCHAR
STARTCHAR uni2838
ENCODING 10296
SWIDTH 466 0
DWIDTH 7 0
BBX 6 10 3 0
BITMAP
0C
0C
00
00
30
30
00
00
C0
C0
ENDCHAR
STARTCHAR uni2839
ENCODING 10297
SWIDTH 466 0
DWIDTH 7 0
BBX 6 10 3 0
BITMAP
CC
CC
00
00
30
30
00
00
C0
C0
ENDCHAR
STARTCHAR uni283A
ENCODING 10298
SWIDTH 466 0
DWIDTH 7 0
BBX 8 10 1 0
BITMAP
03
03
00
00
CC
CC
00
00
30
30
ENDCHAR
STARTCHAR uni283B
ENCODING 10299
SWIDTH 466 0
DWIDTH 7 0
BBX 8 10 1 0
BITMAP
33
33
00
00
CC
CC
00
00
30
30
ENDCHAR
STARTCHAR uni283C
ENCODING 10300
SWIDTH 466 0
DWIDTH 7 0
BBX 10 10 -1 0
BITMAP
00C0
00C0
0000
0000
0300
0300
0000
0000
CC00
CC00
ENDCHAR
STARTCHAR uni283D
ENCODING 10301
SWIDTH 466 0
DWIDTH 7 0
BBX 10 10 -1 0
BITMAP
0CC0
0CC0
0000
0000
0300
0300
0000
0000
CC00
CC00
ENDCHAR
STARTCHAR uni283E
ENCODING 10302
SWIDTH 466 0
DWIDTH 7 0
BBX 10 10 -1 0
BITMAP
00C0
00C0
0000
0000
3300
3300
0000
0000
CC00
CC00
ENDCHAR
STARTCHAR uni283F
ENCODING 10303
SWIDTH 466 0
DWIDTH 7 0
BBX 10 10 -1 0
BITMAP
0CC0
0CC0
0000
0000
3300
3300
0000
0000
CC00
CC00
ENDCHAR
STARTCHAR uni2E28
ENCODING 11816
SWIDTH 466 0
DWIDTH 7 0
BBX 9 11 0 -1
BITMAP
0480
0900
1200
2400
4800
4800
9000
9000
9000
9000
4800
ENDCHAR
STARTCHAR uni2E29
ENCODING 11817
SWIDTH 466 0
DWIDTH 7 0
BBX 9 11 -1 -1
BITMAP
0900
0480
0480
0480
0480
0900
0900
1200
2400
4800
9000
ENDCHAR
STARTCHAR bounding
ENCODING -1
SWIDTH 466 0
DWIDTH 7 0
BBX 16 17 -4 -4
BITMAP
01FF
0101
0202
0202
0404
0404
0808
0808
1010
1010
2020
2020
4040
4040
8080
8080
FF80
ENDCHAR
ENDFONT
